<svg xmlns="http://www.w3.org/2000/svg" xmlns:xlink="http://www.w3.org/1999/xlink" width="484" height="533.94" viewBox="0 0 484 533.94"><defs><clipPath id="a"><path d="M0,420.165V352.684a72,72,0,0,1,72-72h67.333V248.418a102.794,102.794,0,0,1-57.357-76.344A22,22,0,0,1,62.333,150.2V128.763a22,22,0,0,1,18.334-21.7v-4.4a102.667,102.667,0,0,1,205.333,0v4.4a22.007,22.007,0,0,1,18.333,21.7V150.2a22,22,0,0,1-19.643,21.875,102.794,102.794,0,0,1-57.357,76.344v32.266h67.333a72,72,0,0,1,72,72v67.481Z" fill="#060400"/></clipPath><clipPath id="b"><path d="M366.666,159.3H0V72A71.94,71.94,0,0,1,72,0h50.943c-.073.84-.11,1.7-.11,2.551,0,11.291,6.389,21.906,17.989,29.89s27.023,12.381,43.428,12.381,31.828-4.4,43.428-12.381,17.989-18.6,17.989-29.89c0-.848-.037-1.706-.11-2.551h49.11a71.94,71.94,0,0,1,72,72v87.3Z" transform="translate(0 0)" fill="#e6e6e6"/></clipPath><clipPath id="c"><path d="M.008,2.128A19,19,0,0,0,18.89,19,19,19,0,0,0,37.782,2.04,2.1,2.1,0,0,0,35.933,0H1.977A2.132,2.132,0,0,0,.008,2.128Z" transform="translate(0)" fill="rgba(0,0,0,0.7)"/></clipPath><clipPath id="d"><rect width="484" height="482.031" fill="none"/></clipPath><clipPath id="e"><path d="M6.656,139.933c-4.472-.023-5.445-40.959-3.515-57.2.3-2.494,1.439-6.954.612-9.2C3.031,71.58-.5,71.584.061,68.319.7,64.6,4.691,66.45,6.428,64.672c3.29-3.365-1.785-4.161-2.628-7.106-1.251-4.377,2.364-5.5,5.623-6.887,3.605-1.528,3.137-.186,6.062-3.179-3.909-2.69-5.321-6.356.03-8.322a15.43,15.43,0,0,1,4.585-.341c2.181.022,4.4.043,5.379-.643.465-.329.648-2.2.934-2.587,2.843-3.822,2.142-6.587,1.855-10.876-.238-3.509-.206-6.731,4.269-7.083,2.985-.232,5.412,2.058,8.087,2.732,2.968.749,1.853,1.294,4.178-.208,4.082-2.641,1.3-7.785,4.541-10.855,4.44-4.211,7.352,1.962,10.918,2.429C68,12.761,65.516,5.376,70.1,2.67c5.478-3.231,6.008,3.876,9.43,4.129,2.965.219,8.3-5.155,10.887-6.156C94.6-.98,97.634.775,100.712,2.53c2.561,1.46,5.155,2.92,8.469,2.436,5.3-.775,6.727-1.407,11.507,1.424,4.64,2.748,5.744.783,11,.744,3.712-.026,5.986,2.887,9.091,3.191a4.807,4.807,0,0,0,2.343-.631,5.111,5.111,0,0,1,2.35-.637c5.935.338,6.31,7.546,11.025,9.531,4.308,1.813,9.374-.735,13.649-1.206,10.433-1.15,3.288,8,3.584,13.465,2.1.46,4.222-.262,6.338-.986,2-.683,4.006-1.368,5.989-1.046,6.42,1.041,4,7.29,2.51,11.5,4.447-.074,16.058-4.713,18.94,1.218,1.485,3.059-1.977,7.141-1.921,10.25.081,4.377,3.5,8,4.716,12.139,1.635,5.592,3.965,20.578-.134,25.542-1.368,1.657-10.708-3-14.6-5.017C162.846,67.474,156.5,62.075,104.95,62.78S18.09,86.168,16.1,88.488c-1.383,1.615-3.147,5.925-4.6,17.931s.4,33.514-4.841,33.514Zm203.542-2c-1.379-.4-3.486-8.533-3.787-13.291s-3.178-20.947-7.593-28.4c-1.008-1.7-3.9-4.69-2.648-6.129,1.548-1.785,3.051-.75,4.942-.036,2.044.775,7.217,4.312,7.58,4.5,3.221,1.7,5.772,18.768,5.9,25.294.074,3.86.141,18.137-3.851,18.136A1.913,1.913,0,0,1,210.2,137.936Z" transform="translate(0 0)" fill="#2e3257"/></clipPath><filter id="f" x="126.5" y="151.535" width="231" height="84.655" filterUnits="userSpaceOnUse"><feOffset dy="2" input="SourceAlpha"/><feGaussianBlur result="g"/><feFlood flood-opacity="0.102"/><feComposite operator="in" in2="g"/><feComposite in="SourceGraphic"/></filter></defs><g transform="translate(-448.5 -81.06)"><g transform="translate(-6 -20)"><g transform="translate(460.5 183)" fill="#7d89a2"><path d="M 236 451.5 C 220.0198822021484 451.5 204.0500030517578 449.9583435058594 188.533935546875 446.9178161621094 C 173.4126434326172 443.9546508789063 158.5388793945313 439.5332336425781 144.3258819580078 433.7763671875 C 130.3711242675781 428.1241149902344 116.9117660522461 421.128173828125 104.3217620849609 412.9829406738281 C 91.85164642333984 404.9152221679688 80.12535095214844 395.6501770019531 69.46865081787109 385.4450073242188 C 58.81229400634766 375.240234375 49.1377067565918 364.0114135742188 40.71364593505859 352.0705261230469 C 32.20917510986328 340.0156555175781 24.90482330322266 327.1286010742188 19.0034122467041 313.7674255371094 C 12.99317646026611 300.1596374511719 8.377176284790039 285.9194641113281 5.283647060394287 271.4424133300781 C 2.10947060585022 256.5877685546875 0.5 241.2987670898438 0.5 226 C 0.5 210.7012329101563 2.10947060585022 195.4122314453125 5.283647060394287 180.5575866699219 C 8.377176284790039 166.0805358886719 12.99317646026611 151.8403472900391 19.0034122467041 138.2325897216797 C 24.90482330322266 124.8714141845703 32.20917510986328 111.9843521118164 40.71364593505859 99.92947387695313 C 49.1377067565918 87.98858642578125 58.81229400634766 76.759765625 69.46865081787109 66.55500030517578 C 80.12535095214844 56.34982299804688 91.85164642333984 47.08476638793945 104.3217620849609 39.01705932617188 C 116.9117660522461 30.87182426452637 130.3711242675781 23.87588310241699 144.3258819580078 18.22364616394043 C 158.5388793945313 12.46676445007324 173.4126434326172 8.045352935791016 188.533935546875 5.082176685333252 C 204.0500030517578 2.041646957397461 220.0198822021484 0.5 236 0.5 C 251.9801177978516 0.5 267.9500122070313 2.041646957397461 283.466064453125 5.082176685333252 C 298.5873413085938 8.045352935791016 313.4611206054688 12.46676445007324 327.6741027832031 18.22364616394043 C 341.6288757324219 23.87588310241699 355.0882263183594 30.87182426452637 367.67822265625 39.01705932617188 C 380.1483459472656 47.08476638793945 391.8746337890625 56.34982299804688 402.5313415527344 66.55500030517578 C 413.1877136230469 76.759765625 422.8623046875 87.98858642578125 431.2863464355469 99.92947387695313 C 439.7908325195313 111.9843521118164 447.0951843261719 124.8714141845703 452.99658203125 138.2325897216797 C 459.0068359375 151.8403472900391 463.6228332519531 166.0805358886719 466.7163391113281 180.5575866699219 C 469.8905334472656 195.4122314453125 471.5 210.7012329101563 471.5 226 C 471.5 241.2987670898438 469.8905334472656 256.5877685546875 466.7163391113281 271.4424133300781 C 463.6228332519531 285.9194641113281 459.0068359375 300.1596374511719 452.99658203125 313.7674255371094 C 447.0951843261719 327.1286010742188 439.7908325195313 340.0156555175781 431.2863464355469 352.0705261230469 C 422.8623046875 364.0114135742188 413.1877136230469 375.240234375 402.5313415527344 385.4450073242188 C 391.8746337890625 395.6501770019531 380.1483459472656 404.9152221679688 367.67822265625 412.9829406738281 C 355.0882263183594 421.128173828125 341.6288757324219 428.1241149902344 327.6741027832031 433.7763671875 C 313.4611206054688 439.5332336425781 298.5873413085938 443.9546508789063 283.466064453125 446.9178161621094 C 267.9500122070313 449.9583435058594 251.9801177978516 451.5 236 451.5 Z" stroke="none"/><path d="M 236 1 C 220.0521240234375 1 204.1145935058594 2.538543701171875 188.6300659179688 5.57281494140625 C 173.5400085449219 8.529876708984375 158.6970520019531 12.94210815429688 144.5135803222656 18.68707275390625 C 130.5880126953125 24.32748413085938 117.1569519042969 31.3087158203125 104.5933532714844 39.4368896484375 C 92.14971923828125 47.4874267578125 80.44842529296875 56.73275756835938 69.81448364257813 66.91610717773438 C 59.18130493164063 77.09869384765625 49.52783203125 88.30300903320313 41.12222290039063 100.2177124023438 C 32.63677978515625 112.2455749511719 25.34881591796875 125.1036376953125 19.4608154296875 138.4346618652344 C 13.46435546875 152.0111083984375 8.8590087890625 166.2184753417969 5.7725830078125 180.6620483398438 C 2.60577392578125 195.482421875 1 210.7362976074219 1 226 C 1 241.2637023925781 2.60577392578125 256.517578125 5.7725830078125 271.3379516601563 C 8.8590087890625 285.7815246582031 13.46435546875 299.9888916015625 19.4608154296875 313.5653686523438 C 25.34881591796875 326.8963623046875 32.63677978515625 339.75439453125 41.12222290039063 351.7822875976563 C 49.52783203125 363.6969909667969 59.18130493164063 374.9013061523438 69.81448364257813 385.0838928222656 C 80.44842529296875 395.2672424316406 92.14971923828125 404.5125732421875 104.5933532714844 412.5631103515625 C 117.1569519042969 420.6912841796875 130.5880126953125 427.6725158691406 144.5135803222656 433.3129272460938 C 158.6970520019531 439.0578918457031 173.5400085449219 443.4701232910156 188.6300659179688 446.4271850585938 C 204.1145935058594 449.4614562988281 220.0521240234375 451 236 451 C 251.9478759765625 451 267.8854064941406 449.4614562988281 283.3699340820313 446.4271850585938 C 298.4600219726563 443.4701232910156 313.3029479980469 439.0578918457031 327.4863891601563 433.3129272460938 C 341.4119873046875 427.6725158691406 354.8430480957031 420.6912841796875 367.4066467285156 412.5631103515625 C 379.8502807617188 404.5125732421875 391.5515747070313 395.2672424316406 402.185546875 385.0838928222656 C 412.8186950683594 374.9013061523438 422.47216796875 363.6969909667969 430.8777770996094 351.7822875976563 C 439.3632202148438 339.75439453125 446.6511840820313 326.8963623046875 452.5391845703125 313.5653686523438 C 458.53564453125 299.9888916015625 463.1409912109375 285.7815246582031 466.2274169921875 271.3379516601563 C 469.3942260742188 256.517578125 471 241.2637023925781 471 226 C 471 210.7362976074219 469.3942260742188 195.482421875 466.2274169921875 180.6620483398438 C 463.1409912109375 166.2184753417969 458.53564453125 152.0111083984375 452.5391845703125 138.4346618652344 C 446.6511840820313 125.1036376953125 439.3632202148438 112.2455749511719 430.8777770996094 100.2177124023438 C 422.47216796875 88.30300903320313 412.8186950683594 77.09869384765625 402.185546875 66.91610717773438 C 391.5515747070313 56.73275756835938 379.8502807617188 47.4874267578125 367.4066467285156 39.4368896484375 C 354.8430480957031 31.3087158203125 341.4119873046875 24.32748413085938 327.4863891601563 18.68707275390625 C 313.3029479980469 12.94210815429688 298.4600219726563 8.529876708984375 283.3699340820313 5.57281494140625 C 267.8854064941406 2.538543701171875 251.9478759765625 1 236 1 M 236 0 C 366.3391723632813 0 472 101.1836547851563 472 226 C 472 350.8163452148438 366.3391723632813 452 236 452 C 105.6608276367188 452 0 350.8163452148438 0 226 C 0 101.1836547851563 105.6608276367188 0 236 0 Z" stroke="none" fill="#707070"/></g><g transform="translate(454.5 101.06)"><g transform="translate(58.667 61.866)"><path d="M0,420.165V352.684a72,72,0,0,1,72-72h67.333V248.418a102.794,102.794,0,0,1-57.357-76.344A22,22,0,0,1,62.333,150.2V128.763a22,22,0,0,1,18.334-21.7v-4.4a102.667,102.667,0,0,1,205.333,0v4.4a22.007,22.007,0,0,1,18.333,21.7V150.2a22,22,0,0,1-19.643,21.875,102.794,102.794,0,0,1-57.357,76.344v32.266h67.333a72,72,0,0,1,72,72v67.481Z" fill="#d0c6ac"/><g clip-path="url(#a)"><g transform="translate(-58.667)"><rect width="484" height="420.165" fill="#ae5d29"/></g><path d="M102.667,119.543A102.023,102.023,0,0,1,62.7,111.474a102.676,102.676,0,0,1-17.439-9.466A103.235,103.235,0,0,1,17.534,74.278,102.676,102.676,0,0,1,8.068,56.838,102.023,102.023,0,0,1,0,16.876V3.746C.348,60,46.4,105.767,102.667,105.767A102.783,102.783,0,0,0,205.333,3.1V16.876a102.023,102.023,0,0,1-8.068,39.962A102.676,102.676,0,0,1,187.8,74.278a103.235,103.235,0,0,1-27.731,27.731,102.676,102.676,0,0,1-17.439,9.466A102.023,102.023,0,0,1,102.667,119.543Z" transform="translate(80.667 152.531)" fill="rgba(0,0,0,0.1)"/></g></g><g transform="translate(58.667 335.635)"><g transform="translate(0 39.003)"><path d="M366.666,151.717H0V72A71.94,71.94,0,0,1,72,0h50.943c-.073.8-.11,1.617-.11,2.429,0,10.754,6.389,20.863,17.989,28.467s27.023,11.791,43.428,11.791S216.078,38.5,227.678,30.9s17.989-17.714,17.989-28.467c0-.808-.037-1.625-.11-2.429h49.11a71.94,71.94,0,0,1,72,72v79.717Z" transform="translate(0 0)" fill="#e6e6e6"/><g transform="translate(0 0)" clip-path="url(#b)"><g transform="translate(-58.667 -57.171)"><rect width="484" height="216.472" fill="#262e33"/></g><g transform="translate(111.586 -47.462)" opacity="0.6"><ellipse cx="72.664" cy="52.964" rx="72.664" ry="52.964" transform="translate(0 0)" fill="rgba(0,0,0,0.16)"/></g></g></g><g transform="translate(0)"><path d="M366.666,195.76H184.258c9.03,0,17.791-3.87,26.039-11.5,7.968-7.369,15.125-17.918,21.27-31.355,12.639-27.634,19.6-64.376,19.6-103.457A306.2,306.2,0,0,0,247.248,0h47.418a71.94,71.94,0,0,1,72,72V195.76Zm-182.772,0H0V72A71.94,71.94,0,0,1,72,0h49.252a306.193,306.193,0,0,0-3.919,49.451c0,39.081,6.961,75.822,19.6,103.457,6.146,13.437,13.3,23.986,21.27,31.355,8.14,7.528,16.784,11.4,25.692,11.5Z" transform="translate(0 2.544)" fill="#3a4c5a"/><path d="M0,20.3,17.519,2.968a5.982,5.982,0,0,1,8.9.1L38.5,15.463Z" transform="translate(273.167 119.964)" fill="#e6e6e6"/><path d="M45.833,0C34.833,70.132,55,198.3,55,198.3H25.667L0,111.244,11,89.479,0,74.969,34.833,2.418A35.882,35.882,0,0,1,45.833,0Z" transform="translate(80.667)" fill="#2f4351"/><path d="M-20.833,0C-9.833,70.132-30,198.3-30,198.3H-.667L25,111.244,14,89.479l11-14.51L-9.833,2.418A35.882,35.882,0,0,0-20.833,0Z" transform="translate(261)" fill="#2f4351"/></g></g><g transform="translate(139.333 141.077)"><g transform="translate(3.667 89.543)"><rect width="198" height="75.767" fill="none"/><g transform="translate(80.115 29.519)"><path d="M.008,2.128A19,19,0,0,0,18.89,19,19,19,0,0,0,37.782,2.04,2.1,2.1,0,0,0,35.933,0H1.977A2.132,2.132,0,0,0,.008,2.128Z" transform="translate(0)" fill="rgba(0,0,0,0.7)"/><g clip-path="url(#c)"><rect width="31" height="16" rx="5" transform="translate(3.89 -11)" fill="#fff"/><g transform="translate(2.89 11)"><circle cx="11" cy="11" r="11" fill="#ff4f6d"/><circle cx="11" cy="11" r="11" transform="translate(10)" fill="#ff4f6d"/></g></g></g></g><g transform="translate(51.333 68.88)"><rect width="102.667" height="41.328" fill="none"/><path d="M0,0C0,7.608,9.85,13.776,22,13.776h0C34.15,13.776,44,7.608,44,0" transform="translate(29.333 13.776)" fill="rgba(0,0,0,0.16)"/></g><g transform="translate(0 13.776)"><rect width="205.333" height="75.767" fill="none"/><path d="M.294,11.1C3.679,4.561,11.3,0,20.162,0c8.83,0,16.429,4.529,19.833,11.033,1.011,1.932-.428,3.513-1.879,2.342A28.706,28.706,0,0,0,20.162,7.48,28.9,28.9,0,0,0,2.635,13.038C1,14.293-.7,13.015.294,11.1Z" transform="translate(29.333 27.552)" fill="rgba(0,0,0,0.6)"/><path d="M.294,11.1C3.679,4.561,11.3,0,20.162,0c8.83,0,16.429,4.529,19.833,11.033,1.011,1.932-.428,3.513-1.879,2.342A28.706,28.706,0,0,0,20.162,7.48,28.9,28.9,0,0,0,2.635,13.038C1,14.293-.7,13.015.294,11.1Z" transform="translate(135.667 27.552)" fill="rgba(0,0,0,0.6)"/></g><g transform="translate(22 10.467)"><path d="M6.656,19.08c7.177-9.486,26.854-14.805,43.8-10.9a3.687,3.687,0,0,0,4.435-2.523A3.437,3.437,0,0,0,52.208,1.5C32.524-3.045,9.739,3.115.678,15.09a3.312,3.312,0,0,0,.865,4.8A3.821,3.821,0,0,0,6.656,19.08Z" transform="translate(0 0)" fill="rgba(0,0,0,0.6)"/><path d="M18.345,19.08c-7.177-9.486-26.854-14.805-43.8-10.9a3.687,3.687,0,0,1-4.435-2.523A3.437,3.437,0,0,1-27.208,1.5c19.684-4.54,42.469,1.619,51.53,13.595a3.312,3.312,0,0,1-.865,4.8A3.821,3.821,0,0,1,18.345,19.08Z" transform="translate(136.334 0)" fill="rgba(0,0,0,0.6)"/></g></g><rect width="484" height="482.031" fill="none"/><g clip-path="url(#d)"><g transform="translate(-1.833)"><g transform="translate(133.834 32.718)"><path d="M6.656,139.933c-4.472-.023-5.445-40.959-3.515-57.2.3-2.494,1.439-6.954.612-9.2C3.031,71.58-.5,71.584.061,68.319.7,64.6,4.691,66.45,6.428,64.672c3.29-3.365-1.785-4.161-2.628-7.106-1.251-4.377,2.364-5.5,5.623-6.887,3.605-1.528,3.137-.186,6.062-3.179-3.909-2.69-5.321-6.356.03-8.322a15.43,15.43,0,0,1,4.585-.341c2.181.022,4.4.043,5.379-.643.465-.329.648-2.2.934-2.587,2.843-3.822,2.142-6.587,1.855-10.876-.238-3.509-.206-6.731,4.269-7.083,2.985-.232,5.412,2.058,8.087,2.732,2.968.749,1.853,1.294,4.178-.208,4.082-2.641,1.3-7.785,4.541-10.855,4.44-4.211,7.352,1.962,10.918,2.429C68,12.761,65.516,5.376,70.1,2.67c5.478-3.231,6.008,3.876,9.43,4.129,2.965.219,8.3-5.155,10.887-6.156C94.6-.98,97.634.775,100.712,2.53c2.561,1.46,5.155,2.92,8.469,2.436,5.3-.775,6.727-1.407,11.507,1.424,4.64,2.748,5.744.783,11,.744,3.712-.026,5.986,2.887,9.091,3.191a4.807,4.807,0,0,0,2.343-.631,5.111,5.111,0,0,1,2.35-.637c5.935.338,6.31,7.546,11.025,9.531,4.308,1.813,9.374-.735,13.649-1.206,10.433-1.15,3.288,8,3.584,13.465,2.1.46,4.222-.262,6.338-.986,2-.683,4.006-1.368,5.989-1.046,6.42,1.041,4,7.29,2.51,11.5,4.447-.074,16.058-4.713,18.94,1.218,1.485,3.059-1.977,7.141-1.921,10.25.081,4.377,3.5,8,4.716,12.139,1.635,5.592,3.965,20.578-.134,25.542-1.368,1.657-10.708-3-14.6-5.017C162.846,67.474,156.5,62.075,104.95,62.78S18.09,86.168,16.1,88.488c-1.383,1.615-3.147,5.925-4.6,17.931s.4,33.514-4.841,33.514Zm203.542-2c-1.379-.4-3.486-8.533-3.787-13.291s-3.178-20.947-7.593-28.4c-1.008-1.7-3.9-4.69-2.648-6.129,1.548-1.785,3.051-.75,4.942-.036,2.044.775,7.217,4.312,7.58,4.5,3.221,1.7,5.772,18.768,5.9,25.294.074,3.86.141,18.137-3.851,18.136A1.913,1.913,0,0,1,210.2,137.936Z" transform="translate(0 0)" fill="#2e3257"/><g transform="translate(0 0)" clip-path="url(#e)"><g transform="translate(-132 -32.718)"><rect width="484" height="482.031" fill="#2c1b18"/></g></g></g><g transform="translate(113.667 146.369)"><g transform="matrix(1, 0, 0, 1, -111.83, -146.37)" filter="url(#f)"><path d="M172.333,82.655a46.177,46.177,0,0,1-17.126-3.248,44.114,44.114,0,0,1-13.986-8.857,41.15,41.15,0,0,1-9.429-13.136A39.185,39.185,0,0,1,129,34.15a13.749,13.749,0,0,0-27.352-1.725,39.18,39.18,0,0,1-2.434,24.989,41.15,41.15,0,0,1-9.43,13.136,44.114,44.114,0,0,1-13.986,8.857,46.783,46.783,0,0,1-34.254,0,44.116,44.116,0,0,1-13.986-8.857,41.15,41.15,0,0,1-9.43-13.136,39.158,39.158,0,0,1-1.557-28.141H2.5a2.5,2.5,0,0,1-2.5-2.5v-3.61a2.5,2.5,0,0,1,2.5-2.5H20.553A42.975,42.975,0,0,1,36.355,5.7,45.335,45.335,0,0,1,46.91,1.492,46.782,46.782,0,0,1,58.667,0,46,46,0,0,1,82,6.285,42.561,42.561,0,0,1,97.929,22.652a21.127,21.127,0,0,1,7.4-6.449,21.465,21.465,0,0,1,9.922-2.426,21.163,21.163,0,0,1,17.6,9.289A42.472,42.472,0,0,1,148.789,6.408,45.967,45.967,0,0,1,172.333,0,46.785,46.785,0,0,1,184.09,1.492,45.334,45.334,0,0,1,194.645,5.7a42.974,42.974,0,0,1,15.8,14.965H228.5a2.5,2.5,0,0,1,2.5,2.5v3.61a2.5,2.5,0,0,1-2.5,2.5H214.432a39.159,39.159,0,0,1-1.557,28.141,41.15,41.15,0,0,1-9.43,13.136,44.114,44.114,0,0,1-13.986,8.857A46.179,46.179,0,0,1,172.333,82.655Zm0-75.767c-20.218,0-36.666,15.45-36.666,34.44s16.448,34.439,36.666,34.439S209,60.318,209,41.328,192.551,6.888,172.333,6.888Zm-113.666,0C38.448,6.888,22,22.338,22,41.328S38.448,75.767,58.667,75.767,95.333,60.318,95.333,41.328,78.885,6.888,58.667,6.888Z" transform="translate(126.5 151.54)" fill="#252c2f"/></g></g></g></g></g></g></g></svg>